PathFileType	4	(X/Y/Z)	C:/Users/opensim2020/Desktop/walking_exp_matlab/subject06_walking14_straight_01.trc	
DataRate	CameraRate	NumFrames	NumMarkers	Units	OrigDataRate	OrigDataStartFrame	OrigNumFrames	
100.00	100.00	8	45	mm	100.00	810	203	
Frame#	Time	LFHD			RFHD			LBHD			RBHD			C7			T10			CLAV			STRN			RBAK			LSHO			LUPA			LELB			LFRM			LWRA			LWRB			LFIN			RSHO			RUPA			RELB			RFRM			RWRA			RWRB			RFIN			LASI			RASI			LPSI			RPSI			LTHI			LKNE			LTIB			LANK			LHEE			LTOE			RTHI			RKNE			RTIB			RANK			RHEE			RTOE			*39			*40			*41			*42			*43			*44			
		X1	Y1	Z1	X2	Y2	Z2	X3	Y3	Z3	X4	Y4	Z4	X5	Y5	Z5	X6	Y6	Z6	X7	Y7	Z7	X8	Y8	Z8	X9	Y9	Z9	X10	Y10	Z10	X11	Y11	Z11	X12	Y12	Z12	X13	Y13	Z13	X14	Y14	Z14	X15	Y15	Z15	X16	Y16	Z16	X17	Y17	Z17	X18	Y18	Z18	X19	Y19	Z19	X20	Y20	Z20	X21	Y21	Z21	X22	Y22	Z22	X23	Y23	Z23	X24	Y24	Z24	X25	Y25	Z25	X26	Y26	Z26	X27	Y27	Z27	X28	Y28	Z28	X29	Y29	Z29	X30	Y30	Z30	X31	Y31	Z31	X32	Y32	Z32	X33	Y33	Z33	X34	Y34	Z34	X35	Y35	Z35	X36	Y36	Z36	X37	Y37	Z37	X38	Y38	Z38	X39	Y39	Z39	X40	Y40	Z40	X41	Y41	Z41	X42	Y42	Z42	X43	Y43	Z43	X44	Y44	Z44	X45	Y45	Z45	

1	0.000	1376.26611	-1200.91614	1646.06909	1507.66138	-1190.94202	1639.40173	1387.61975	-1337.34436	1600.18372	1516.47375	-1325.43872	1598.56311	1449.86157	-1343.71204	1443.54236	1466.61426	-1392.18677	1115.38928	1444.41089	-1236.54199	1360.11975	1442.98840	-1206.36975	1183.65479	1538.30652	-1420.05725	1277.25867	1285.49890	-1304.39563	1391.10632	1220.80798	-1361.79858	1197.40417	1214.26208	-1399.86108	1091.21338	1185.88977	-1420.99963	943.91241	1203.62708	-1378.83618	815.53357	1190.44910	-1449.52112	827.65656	1176.40698	-1431.48840	738.79327	1607.53662	-1270.34082	1396.76416	1701.82593	-1292.45740	1199.44128	1720.19299	-1272.58997	1080.07544	1740.50842	-1244.87500	963.19263	1710.77319	-1173.88232	828.71387	1755.53333	-1226.71143	827.71613	1759.96948	-1181.15894	756.59619	1350.06543	-1223.63745	958.86670	1568.04529	-1228.27661	946.04547	1373.82117	-1380.48560	986.93585	1540.95691	-1376.42236	979.61554	1270.90662	-1261.27966	651.07526	1296.63281	-1237.24243	492.09073	1293.84204	-1217.02710	236.88962	1331.31140	-1179.11584	69.38787	1377.93433	-1215.35229	54.41098	1331.69971	-1031.35120	43.44023	1611.20227	-1343.28320	617.89618	1593.57251	-1369.52026	493.47824	1588.81787	-1538.76331	282.46906	1547.75598	-1648.96423	132.59578	1502.21069	-1695.18945	128.26782	1563.57715	-1533.21277	39.43837	1441.07104	-1293.74023	1692.74451															 
2	0.010	1375.18372	-1193.50378	1648.53711	1506.58752	-1184.00757	1641.61011	1385.92871	-1330.05127	1602.59460	1514.85254	-1318.57214	1600.79358	1447.89941	-1336.34937	1445.68066	1464.61096	-1383.94287	1117.43542	1442.67773	-1229.18213	1362.58276	1440.95386	-1198.14197	1186.27600	1536.17932	-1412.34985	1279.07739	1283.68884	-1296.19104	1393.56799	1218.58423	-1351.34424	1199.23010	1211.52344	-1388.02856	1092.36182	1183.43396	-1407.50781	944.64667	1202.63123	-1366.34033	817.13672	1187.43237	-1436.35754	828.53693	1174.37195	-1418.12146	740.06305	1605.80017	-1263.50342	1399.03589	1699.49915	-1285.91785	1201.57678	1717.89099	-1266.21643	1082.19568	1738.25549	-1238.96729	965.41547	1709.98987	-1168.31128	831.18768	1753.21143	-1220.68469	829.64941	1758.04089	-1175.19421	758.75867	1347.69531	-1214.99805	961.51184	1565.73254	-1218.84937	948.60046	1372.13550	-1371.66956	989.03595	1539.13892	-1367.30811	981.34650	1269.42078	-1253.54150	653.09814	1294.39636	-1231.79614	493.30182	1292.86487	-1215.11560	237.90170	1330.71069	-1179.18469	69.62049	1377.20544	-1215.74341	54.44783	1332.13025	-1031.94702	43.88195	1610.04358	-1331.91052	619.55328	1593.03162	-1356.92212	494.78140	1588.67944	-1529.77271	286.56766	1547.93970	-1642.92383	139.03114	1502.23486	-1688.84985	136.74367	1563.67188	-1532.02124	39.85106	1439.64636	-1286.62280	1695.08350															 
3	0.020	1374.02686	-1186.11426	1650.82410	1505.41260	-1176.99927	1643.83752	1384.22876	-1322.66736	1605.04395	1513.14917	-1311.70239	1603.08105	1446.02161	-1328.96094	1447.73865	1462.42725	-1375.66785	1119.55457	1440.93591	-1221.62976	1365.02356	1438.97070	-1190.05725	1188.92432	1534.17029	-1404.50977	1281.02612	1281.87891	-1288.11853	1396.24182	1216.25891	-1340.85889	1201.30566	1208.75598	-1376.53210	1094.39111	1180.77173	-1394.79211	946.42426	1201.49207	-1353.17639	819.02667	1184.53760	-1422.63525	830.08368	1172.35425	-1403.75842	741.52509	1603.91589	-1256.50513	1401.41785	1697.50256	-1279.27722	1204.08618	1715.60498	-1259.92188	1084.52686	1735.96704	-1232.88464	967.68170	1708.00879	-1162.21472	833.43323	1750.89441	-1214.88428	831.82397	1755.84656	-1169.53711	760.85229	1345.46838	-1206.17651	964.16870	1562.83765	-1210.40356	951.25116	1370.31665	-1362.82275	991.16852	1537.11914	-1358.14050	983.28754	1268.14758	-1245.89441	655.00452	1292.45837	-1226.59216	494.37143	1291.73572	-1213.14514	238.70367	1330.00745	-1179.40466	69.66951	1376.47229	-1216.31592	54.43312	1332.25269	-1032.75452	44.29636	1609.06006	-1320.15259	621.22321	1592.86084	-1343.64075	496.17087	1588.62439	-1520.29370	290.98370	1548.04077	-1636.43738	146.14436	1501.99744	-1681.31970	145.48041	1563.86536	-1530.97839	40.16703	1438.22620	-1279.37744	1697.46411															 
4	0.030	1372.69482	-1178.70398	1652.97253	1504.11621	-1169.94128	1645.85632	1382.55054	-1315.29773	1607.39441	1511.51013	-1304.66455	1605.32617	1444.17517	-1321.47925	1449.56934	1459.98706	-1367.33215	1121.56482	1439.23828	-1213.92810	1367.30872	1436.76294	-1181.54968	1191.45203	1532.19885	-1396.54431	1282.86536	1280.23145	-1280.09778	1399.06140	1213.63806	-1330.74731	1203.70337	1205.91992	-1365.42725	1096.38867	1178.18762	-1381.71533	948.51318	1200.22351	-1339.86804	821.15668	1181.47888	-1408.51208	831.91907	1170.11560	-1388.71484	743.18713	1601.92212	-1249.41748	1403.75256	1695.40015	-1272.20703	1206.45349	1713.29480	-1253.59937	1086.82544	1733.78284	-1226.89868	969.99481	1706.05212	-1156.29297	835.59583	1748.56067	-1209.34888	834.11078	1753.64343	-1163.98279	762.79681	1343.22083	-1197.55725	966.46747	1560.06323	-1200.79419	954.02161	1368.33752	-1353.81873	993.18469	1534.93079	-1348.92883	985.29474	1266.46899	-1239.00000	656.62854	1290.16101	-1221.32434	495.40417	1290.52368	-1211.04822	239.23311	1329.72266	-1179.81201	69.70547	1375.97388	-1216.85242	54.39543	1332.13220	-1033.67786	44.69145	1608.27832	-1307.83154	622.74908	1592.90955	-1329.53064	497.28235	1588.47632	-1510.01306	295.49579	1548.17859	-1629.23682	153.49527	1501.63977	-1672.96045	154.63080	1564.45801	-1530.00964	40.73260	1436.68103	-1272.02930	1699.71472															 
5	0.040	1371.41504	-1171.15137	1654.84705	1502.78723	-1162.79626	1647.71826	1380.84277	-1307.84973	1609.41089	1509.83374	-1297.62415	1607.34766	1442.26697	-1313.85168	1451.09851	1457.37793	-1359.00879	1123.42822	1437.33252	-1205.81116	1369.47864	1434.63086	-1172.83972	1193.81335	1530.15381	-1388.42603	1284.52673	1278.56641	-1272.02222	1401.76477	1211.35242	-1320.11609	1205.99219	1203.23083	-1353.23804	1098.26990	1175.58679	-1368.50317	950.58435	1198.26367	-1324.61133	822.95996	1178.35913	-1393.66809	833.48529	1168.09009	-1372.55481	744.70325	1599.78052	-1242.28540	1405.88953	1693.29016	-1265.29675	1208.88159	1710.99011	-1247.22925	1089.05359	1731.63611	-1220.76855	972.11987	1704.07312	-1150.48108	837.56976	1746.34265	-1203.69019	836.08746	1751.31982	-1158.52612	764.50092	1340.88171	-1189.02844	968.42957	1557.78699	-1191.51428	956.78973	1366.15479	-1344.80518	994.97632	1532.51086	-1339.82056	987.05688	1264.45264	-1232.81519	657.88531	1288.09534	-1216.29053	496.15106	1289.32922	-1208.80078	239.70154	1329.49072	-1180.05444	69.67081	1375.53357	-1217.31714	54.13092	1332.25806	-1034.43103	45.17742	1607.65295	-1295.10828	624.07605	1593.32288	-1314.70093	498.07410	1588.47339	-1498.86987	299.99908	1548.24512	-1621.04700	160.79994	1501.20886	-1663.44556	163.43800	1565.34119	-1528.28772	41.68541	1435.09180	-1264.57434	1701.62268															 
6	0.050	1370.09265	-1163.59338	1656.44214	1501.46716	-1155.66492	1649.22742	1379.14124	-1300.37292	1611.11670	1508.15356	-1290.49805	1608.97217	1440.37012	-1306.14307	1452.37512	1454.65918	-1350.69177	1125.03137	1435.52222	-1197.81116	1371.26563	1432.46423	-1164.17175	1195.82996	1527.97046	-1380.41602	1285.93835	1276.89319	-1263.85083	1404.29688	1208.75708	-1309.92590	1208.33276	1200.56812	-1341.67700	1100.37402	1172.80981	-1354.14526	951.93768	1197.73010	-1310.51636	825.29791	1175.18042	-1378.33838	834.82947	1165.63647	-1356.36609	746.42700	1597.52649	-1235.10974	1407.73206	1691.33716	-1258.25781	1211.04724	1708.73901	-1240.93176	1091.01953	1729.48779	-1214.83728	974.01935	1702.00635	-1144.72229	839.26276	1744.10742	-1197.98022	837.72156	1748.95227	-1153.09241	765.85815	1338.60864	-1180.45837	969.91437	1555.10815	-1183.15576	958.57318	1363.68762	-1335.74109	996.47003	1529.91602	-1330.87952	988.65894	1262.69690	-1226.36426	658.78650	1286.18555	-1211.22583	496.59692	1288.08984	-1206.20605	240.09535	1329.26697	-1180.00391	69.70203	1375.17664	-1217.64343	54.09079	1332.53650	-1035.01477	45.51617	1607.35925	-1282.22607	625.15277	1594.42590	-1299.84204	498.73331	1588.50085	-1486.57581	304.16443	1548.31995	-1612.05981	168.09525	1501.05994	-1653.51721	172.62897	1565.88000	-1525.50720	42.69474	1433.54297	-1257.18494	1703.25488															 
7	0.060	1368.82031	-1155.97400	1657.80310	1500.19849	-1148.59717	1650.47473	1377.46521	-1292.86633	1612.35034	1506.50061	-1283.34351	1610.11414	1438.33606	-1298.35095	1453.39502	1451.92981	-1342.40564	1126.31873	1433.56189	-1189.86951	1372.75867	1430.17444	-1155.70776	1197.43750	1525.62134	-1372.44116	1287.10071	1275.14807	-1255.59473	1406.51868	1206.46838	-1299.26367	1210.27808	1197.64282	-1330.80176	1102.34290	1169.86023	-1340.03955	953.31934	1196.15784	-1295.48535	827.32574	1172.02087	-1362.66418	835.92517	1163.43835	-1339.12512	747.64221	1595.21716	-1227.94348	1409.16736	1689.30701	-1251.29285	1212.81494	1706.52161	-1234.72205	1092.60437	1727.42236	-1208.98303	975.53839	1699.98315	-1139.03259	840.54150	1742.01282	-1192.33105	839.11078	1746.63464	-1147.86047	766.98859	1336.33752	-1171.77063	970.97217	1552.50623	-1172.95190	960.52753	1361.19250	-1326.74475	997.71832	1527.27258	-1322.20227	989.98230	1261.33911	-1219.67212	659.40979	1284.40515	-1206.22339	496.85425	1287.47241	-1203.68604	240.29668	1329.41174	-1179.74023	69.68497	1375.45471	-1217.52673	54.26612	1332.78613	-1035.12134	45.54896	1607.28210	-1269.06775	625.88104	1595.27820	-1284.19165	498.96915	1588.53284	-1473.23584	308.00305	1548.30652	-1602.28796	175.79022	1501.08044	-1642.82117	182.59724	1566.95068	-1523.38965	45.31780	1432.02307	-1249.95007	1704.51208															 
8	0.070	1367.45776	-1148.84399	1659.06189	1498.94055	-1141.35767	1651.46948	1375.72729	-1285.28210	1613.19250	1504.76135	-1276.11597	1610.77576	1436.25598	-1290.50000	1454.22729	1449.15063	-1333.98914	1127.18835	1431.64453	-1181.90161	1373.94434	1427.97986	-1147.12964	1198.68469	1523.04871	-1364.48389	1287.76318	1273.30640	-1247.13293	1408.29736	1203.73950	-1289.27075	1212.08545	1194.79102	-1318.90796	1103.56274	1166.99927	-1325.85242	954.32196	1194.19482	-1279.88428	829.27106	1168.86914	-1346.89697	836.93170	1161.13562	-1321.46484	748.69177	1592.95874	-1220.69128	1410.11011	1687.19849	-1244.53320	1214.12427	1704.40686	-1228.52002	1093.75916	1725.49390	-1203.14050	976.60767	1698.06287	-1133.32153	841.37347	1740.07239	-1186.68469	840.05920	1744.41797	-1142.49780	767.54022	1333.96497	-1162.97559	971.53992	1549.82910	-1166.08252	961.79889	1358.57837	-1317.83862	998.63196	1524.65527	-1313.68262	990.92456	1259.33496	-1213.72388	659.67084	1282.77502	-1201.22437	496.79459	1286.99988	-1201.29395	240.19614	1329.83716	-1179.26599	69.56650	1375.89990	-1217.17236	54.36982	1332.91418	-1034.93567	45.40535	1607.15381	-1255.58862	626.27490	1596.24646	-1268.23962	499.03137	1588.64709	-1458.84985	311.48947	1548.23010	-1591.32361	183.48093	1500.81042	-1630.61365	192.14578	1567.19934	-1520.01050	47.08601	1430.59436	-1242.72864	1705.39526															 
